# xmcd
#
# Track frame offsets:
#        150
#        16522
#        34032
#        52140
#        69112
#        87372
#        104832
#        127672
#        150270
#        170490
#        186422
#
# Disc length: 2718 seconds
#
# Revision: 2
# Processed by: cddbd v1.5.1PL0 Copyright (c) Steve Scherf et al.
# Submitted via: ExactAudioCopy v0.95a3
#
DISCID=820a9c0b
DTITLE=BBMak - Sooner Or Later
DYEAR=1999
DGENRE=Pop
TTITLE0=Back Here
TTITLE1=Still On Your Side
TTITLE2=Next Time
TTITLE3=I Can Tell
TTITLE4=Again
TTITLE5=Can't Say
TTITLE6=Miss You More
TTITLE7=Emily's Song
TTITLE8=September
TTITLE9=Sooner Or Later
TTITLE10=More Than Words
EXTD=YEAR: 1999
EXTT0=
EXTT1=
EXTT2=
EXTT3=
EXTT4=
EXTT5=
EXTT6=
EXTT7=
EXTT8=
EXTT9=
EXTT10=
PLAYORDER=
